<svg xmlns="http://www.w3.org/2000/svg" viewBox="0 0 100.49 45.3"><defs><style>.cls-1{fill:#6e7179;}</style></defs><title>Powered_by</title><g id="Layer_2" data-name="Layer 2"><g id="colors"><path class="cls-1" d="M0,29.73a15.69,15.69,0,0,0,.67,4.52l16-20.06c-.35,0-.69,0-1,0A15.57,15.57,0,0,0,0,29.73Z"/><polygon class="cls-1" points="16.27 32.45 16.27 23.24 8.95 32.45 16.27 32.45"/><path class="cls-1" d="M21.63,15.37V32.45h5.72v5.36H21.63v6.27a15.58,15.58,0,0,0,0-28.71Z"/><path class="cls-1" d="M15.58,45.3h.69V37.81h-14A15.56,15.56,0,0,0,15.58,45.3Z"/><path class="cls-1" d="M37.87,38.48a8.8,8.8,0,0,1-3.47-3.43,9.86,9.86,0,0,1-1.26-5,9.76,9.76,0,0,1,1.26-5,8.91,8.91,0,0,1,3.47-3.42,10.21,10.21,0,0,1,5-1.22,9.78,9.78,0,0,1,4.37,1,7.31,7.31,0,0,1,3,2.79L48.38,25.5A6,6,0,0,0,46,23.4a7,7,0,0,0-3.13-.7,7.31,7.31,0,0,0-3.68.92,6.54,6.54,0,0,0-2.56,2.6,8,8,0,0,0-.91,3.85,8,8,0,0,0,.91,3.87,6.55,6.55,0,0,0,2.56,2.58,7.69,7.69,0,0,0,6.81.24,5.8,5.8,0,0,0,2.37-2.09L50.29,36a7.16,7.16,0,0,1-3.06,2.78,9.65,9.65,0,0,1-4.35,1A10.11,10.11,0,0,1,37.87,38.48Z"/><path class="cls-1" d="M70.43,20.61V39.53H68V35.79a7.79,7.79,0,0,1-3,2.91,8.93,8.93,0,0,1-4.26,1,9.58,9.58,0,0,1-4.82-1.23,8.79,8.79,0,0,1-3.38-3.41,10.14,10.14,0,0,1-1.22-5,10.14,10.14,0,0,1,1.22-5,8.77,8.77,0,0,1,3.38-3.4,9.76,9.76,0,0,1,4.82-1.2,9,9,0,0,1,4.15,1,7.89,7.89,0,0,1,3,2.79v-3.6Zm-6,15.91A6.55,6.55,0,0,0,67,33.92a8.52,8.52,0,0,0,0-7.7,6.55,6.55,0,0,0-2.51-2.6,7.5,7.5,0,0,0-7.2,0,6.55,6.55,0,0,0-2.51,2.6,8.52,8.52,0,0,0,0,7.7,6.55,6.55,0,0,0,2.51,2.6,7.5,7.5,0,0,0,7.2,0Z"/><path class="cls-1" d="M76.23,39a9.45,9.45,0,0,1-3.29-1.67l1.15-2a9.64,9.64,0,0,0,3,1.52,11.72,11.72,0,0,0,3.74.6,7.16,7.16,0,0,0,3.83-.81,2.59,2.59,0,0,0,1.24-2.28,2,2,0,0,0-.69-1.64,4.4,4.4,0,0,0-1.72-.9,25.5,25.5,0,0,0-2.77-.59,32.06,32.06,0,0,1-3.7-.88,5.36,5.36,0,0,1-2.39-1.53,4.26,4.26,0,0,1-1-3,4.69,4.69,0,0,1,2-3.88,8.89,8.89,0,0,1,5.51-1.51,14,14,0,0,1,3.66.49,9.84,9.84,0,0,1,3,1.27l-1.11,2.05a9.55,9.55,0,0,0-5.57-1.62,6.42,6.42,0,0,0-3.69.87,2.63,2.63,0,0,0-1.24,2.26,2.23,2.23,0,0,0,.7,1.73,4.32,4.32,0,0,0,1.74.95q1,.3,2.88.63a33.1,33.1,0,0,1,3.63.86,5.35,5.35,0,0,1,2.34,1.48,4,4,0,0,1,1,2.87,4.57,4.57,0,0,1-2.07,3.94,9.83,9.83,0,0,1-5.73,1.46A14.37,14.37,0,0,1,76.23,39Z"/><path class="cls-1" d="M100.49,38.38a4.91,4.91,0,0,1-1.77,1,7.17,7.17,0,0,1-2.19.34,5.55,5.55,0,0,1-4.1-1.44A5.48,5.48,0,0,1,91,34.21V16.48h2.56v4.13h5.71v2.16H93.55V34.06a3.61,3.61,0,0,0,.82,2.57,3.16,3.16,0,0,0,2.41.88,4,4,0,0,0,2.81-1Z"/><path class="cls-1" d="M35.45.92a2.67,2.67,0,0,1,1.17,1A3,3,0,0,1,37,3.53a3.15,3.15,0,0,1-.4,1.61,2.58,2.58,0,0,1-1.17,1,4.61,4.61,0,0,1-1.88.35H31.27v3.85H30V.54h3.62A4.27,4.27,0,0,1,35.45.92Zm-.25,4a1.9,1.9,0,0,0,.52-1.4,2.1,2.1,0,0,0-.23-1,1.68,1.68,0,0,0-.71-.71,2.54,2.54,0,0,0-1.2-.26H31.27V5.45h2.31A2.25,2.25,0,0,0,35.2,4.94Z"/><path class="cls-1" d="M38.47,4.73A3.24,3.24,0,0,1,39.62,3.4a3.17,3.17,0,0,1,1.75-.48,3.1,3.1,0,0,1,2.92,1.81,4.31,4.31,0,0,1,.41,1.9v.15a4.31,4.31,0,0,1-.41,1.9A3.15,3.15,0,0,1,43.14,10a3.2,3.2,0,0,1-1.76.48,3.11,3.11,0,0,1-2.91-1.8,4.31,4.31,0,0,1-.41-1.9V6.63A4.31,4.31,0,0,1,38.47,4.73Zm1.08,3.41a2.2,2.2,0,0,0,.7,1,2,2,0,0,0,2.26,0,2.1,2.1,0,0,0,.69-1,3.7,3.7,0,0,0,.24-1.36V6.63a3.7,3.7,0,0,0-.24-1.36,2.25,2.25,0,0,0-.7-1,1.8,1.8,0,0,0-1.13-.37,1.78,1.78,0,0,0-1.12.37,2.25,2.25,0,0,0-.7,1,3.92,3.92,0,0,0-.23,1.36v.15A3.92,3.92,0,0,0,39.55,8.14Z"/><path class="cls-1" d="M55.36,3.06l-2.11,7.29h-1L50.46,4.84l-1.72,5.51h-1L45.61,3.06h1.25l1.43,5.41L50,3.06h1l1.71,5.53,1.4-5.53Z"/><path class="cls-1" d="M62.5,7.05H57.57a3.08,3.08,0,0,0,.28,1.23,2.13,2.13,0,0,0,.75.87,2,2,0,0,0,1.13.32,2.12,2.12,0,0,0,1.09-.26,2.7,2.7,0,0,0,.83-.73l.76.59a3.2,3.2,0,0,1-1.08,1,3.3,3.3,0,0,1-1.67.39A3.39,3.39,0,0,1,57.9,10a3,3,0,0,1-1.17-1.25A3.88,3.88,0,0,1,56.31,7V6.67a4.2,4.2,0,0,1,.45-2,3.25,3.25,0,0,1,1.17-1.31,3,3,0,0,1,1.57-.45,2.85,2.85,0,0,1,1.68.46,2.7,2.7,0,0,1,1,1.25,5.1,5.1,0,0,1,.32,1.86ZM61.24,5.94a2.67,2.67,0,0,0-.46-1.43,1.47,1.47,0,0,0-1.28-.58,1.64,1.64,0,0,0-1.26.55A2.86,2.86,0,0,0,57.61,6h3.63Z"/><path class="cls-1" d="M67.23,3a1.15,1.15,0,0,1,.25.07V4.17a3,3,0,0,0-.61,0,1.87,1.87,0,0,0-1,.27,1.73,1.73,0,0,0-.62.78v5.18H64V3.06h1.23l0,.83a2,2,0,0,1,.72-.71,1.92,1.92,0,0,1,1-.26Z"/><path class="cls-1" d="M74.5,7.05H69.57a3.08,3.08,0,0,0,.28,1.23,2.11,2.11,0,0,0,.74.87,2,2,0,0,0,1.13.32,2.13,2.13,0,0,0,1.1-.26,2.56,2.56,0,0,0,.82-.73l.76.59a3.17,3.17,0,0,1-1.07,1,3.3,3.3,0,0,1-1.67.39A3.36,3.36,0,0,1,69.9,10a3.09,3.09,0,0,1-1.18-1.25A4,4,0,0,1,68.31,7V6.67a4.32,4.32,0,0,1,.44-2,3.34,3.34,0,0,1,1.18-1.31,2.91,2.91,0,0,1,1.56-.45,2.88,2.88,0,0,1,1.69.46,2.7,2.7,0,0,1,1,1.25,5.1,5.1,0,0,1,.32,1.86ZM73.24,5.94a2.76,2.76,0,0,0-.46-1.43,1.48,1.48,0,0,0-1.29-.58,1.64,1.64,0,0,0-1.25.55A2.72,2.72,0,0,0,69.61,6h3.63Z"/><path class="cls-1" d="M81.8,0V10.35H80.65l-.06-.78a2.53,2.53,0,0,1-2.08.91A2.44,2.44,0,0,1,77,10a3.1,3.1,0,0,1-1-1.32,4.77,4.77,0,0,1-.36-1.9V6.64A5,5,0,0,1,76,4.69a3,3,0,0,1,1-1.3,2.56,2.56,0,0,1,1.52-.47,2.5,2.5,0,0,1,2,.86V0ZM80.54,8.37V5a2.09,2.09,0,0,0-.68-.76,1.85,1.85,0,0,0-1-.27,1.7,1.7,0,0,0-1.09.35,2.12,2.12,0,0,0-.64,1,4.17,4.17,0,0,0-.21,1.36v.14a4,4,0,0,0,.21,1.35,2.09,2.09,0,0,0,.63.95,1.69,1.69,0,0,0,1.08.35A1.81,1.81,0,0,0,80.54,8.37Z"/><path class="cls-1" d="M92,3.38a2.92,2.92,0,0,1,1,1.31,5.27,5.27,0,0,1,.33,1.95v.14A5.17,5.17,0,0,1,93,8.69,3,3,0,0,1,92,10a2.8,2.8,0,0,1-3.66-.49l-.06.83H87.16V0h1.26V3.84a2.52,2.52,0,0,1,2.07-.92A2.62,2.62,0,0,1,92,3.38Zm0,3.26a3.65,3.65,0,0,0-.45-1.93A1.56,1.56,0,0,0,90.17,4a1.85,1.85,0,0,0-1.07.3,2.09,2.09,0,0,0-.68.84V8.29a2.17,2.17,0,0,0,.69.83,1.81,1.81,0,0,0,1.08.31,1.59,1.59,0,0,0,1.42-.74,3.53,3.53,0,0,0,.46-1.91Z"/><path class="cls-1" d="M100.32,3.06,97.4,11.47a3.7,3.7,0,0,1-.78,1.28,1.82,1.82,0,0,1-1.39.54,1.86,1.86,0,0,1-.36,0,1.51,1.51,0,0,1-.34-.07v-1l.16,0h.17a1.7,1.7,0,0,0,1-.26,1.94,1.94,0,0,0,.57-.94l.28-.74-2.6-7.21h1.37l1.81,5.45L99,3.06Z"/></g></g></svg>